<?xml version="1.0" encoding="utf-8"?>
<!-- Generator: Adobe Illustrator 21.0.2, SVG Export Plug-In . SVG Version: 6.00 Build 0)  -->
<svg version="1.1" id="Laag_1" xmlns="http://www.w3.org/2000/svg" xmlns:xlink="http://www.w3.org/1999/xlink" x="0px" y="0px"
	 viewBox="0 0 1203.3 284.1" style="enable-background:new 0 0 1203.3 284.1;" xml:space="preserve">
<style type="text/css">
	.st0{fill:none;stroke:#BF77E0;stroke-width:2;stroke-miterlimit:10;}
	.st1{fill:none;stroke:#9001C7;stroke-width:3;stroke-miterlimit:10;}
	.st2{fill:none;stroke:#9001C7;stroke-width:2;stroke-miterlimit:10;}
	.st3{fill:none;stroke:#9001C7;stroke-width:0.1;stroke-miterlimit:10;}
	.st4{fill:#9001C7;}
	.st5{font-family:'Athelas-Bold';}
	.st6{font-size:145.35px;}
	.st7{font-family:'ArialMT';}
	.st8{font-size:108.23px;}
</style>
<title>Middel 1</title>
<g id="Laag_2">
	<g id="logotext">
		<path class="st0" d="M121.1,97.1"/>
		<circle class="st1" cx="53.5" cy="137.1" r="120"/>
		<path class="st2" d="M116.3,102.9l-20.6,71.2c-0.3,1,0.3,2.1,1.3,2.4c0.2,0,0.3,0.1,0.5,0.1h16.9c1,0,1.9-0.9,1.9-1.9L116.3,102.9
			z"/>
		<path class="st2" d="M120.7,102.9v71.7c0,1,0.9,1.9,1.9,1.9h16.9c1,0,1.9-0.9,1.9-1.9c0-0.2,0-0.4-0.1-0.5L120.7,102.9z"/>
		<path class="st2" d="M53.9,54.8c0.1-0.7,0.4,1.6,4.3,9c3.5,6.5,3,13.9-4.3,15"/>
		<path class="st3" d="M53.9,54.8"/>
		<path class="st2" d="M53.9,62.6"/>
		<path class="st2" d="M53.9,82.6c0,0,11.2-10.4,37.8-0.9c6.1,2.1,12.7,2.8,19.1,2c0.8-0.1,3.2-0.6,8.2-4.6c1-0.8,5.8-1.8,6.6,2.2
			c0.4,1.8-1.1,4.5-3.4,5.9c-1.4,0.7-2.1,2.4-1.5,3.8l27.1,86.7c0.3,0.8,0,1.7-0.8,2.2l-10.7,7.2c-0.3,0.2-0.7,0.3-1.1,0.3h-33.6
			c-0.4,0-0.8-0.1-1.1-0.4L90,179.7c-0.7-0.5-1-1.3-0.7-2.1l25.3-81.8c0.4-1.1,1-3.7,1.3-5c2.5-10.9,2.9,3.7-27.3-3.4
			C83.4,86,59.4,75,59.4,98.9v89.2c0,0.8,0.5,1.5,1.3,1.8c8.1,2.9,50.7,18.7-1.3,18.7h-3.6c-1.1,0-1.9-0.9-1.9-1.9"/>
		<path class="st2" d="M-8.5,102.9l20.6,71.2c0.3,1.2-0.6,2.4-1.8,3.4H-6.6c-1-1-1.9-1.9-1.9-2.9V102.9z"/>
		<path class="st2" d="M-12.9,102.9v71.7c0,1-0.8,1.9-1.9,2.9h-16.9c-1.3-1-2.2-2.2-1.8-3.4L-12.9,102.9z"/>
		<path class="st2" d="M53.9,54.8c0-0.9-0.4,2.6-4.3,10c-3.4,6.5-3,12.9,4.3,14"/>
		<path class="st3" d="M53.9,54.8"/>
		<path class="st3" d="M53.9,55.5"/>
		<path class="st2" d="M53.9,62.6"/>
		<path class="st2" d="M53.9,82.6c0,0-11.2-10.4-37.8-0.9C10,83.8,3.5,84.5-3,83.7c-0.8-0.1-3.2-0.6-8.2-4.6c-1-0.8-5.8-1.8-6.6,2.2
			c-0.4,1.8,1.1,4.5,3.4,5.9c1.4,0.7,2.1,2.4,1.5,3.8l-27.1,86.8c-0.3,0.8,0,1.7,0.8,2.2l10.7,7.2c0.3,0.2,0.7,0.3,1.1,0.3H6.2
			c0.4,0,0.8-0.1,1.1-0.4l10.5-7.4c0.7-0.5,1-1.3,0.7-2.1L-6.7,95.7c-0.3-1.1-1-3.7-1.3-5c-2.5-10.9-2.9,3.7,27.3-3.4
			C24.4,86,48.4,75,48.4,98.9v89.2c0,0.8-0.5,1.5-1.3,1.8c-8.1,2.9-50.7,18.7,1.3,18.7H52c1.1,0,1.9-0.9,1.9-1.9"/>
		<text transform="matrix(1.21 0 0 1 214.29 119.9199)" class="st4 st5 st6">Haaglanden</text>
		<line class="st1" x1="221.3" y1="168.4" x2="1131.8" y2="168.4"/>
		<text transform="matrix(1.23 0 0 1 230.3901 257.0898)" class="st4 st7 st8">a d v o c a t u u r</text>
	</g>
</g>
</svg>
