<?xml version="1.0" encoding="utf-8"?>
<!-- Generator: Adobe Illustrator 21.0.2, SVG Export Plug-In . SVG Version: 6.00 Build 0)  -->
<svg version="1.1" xmlns="http://www.w3.org/2000/svg" xmlns:xlink="http://www.w3.org/1999/xlink" x="0px" y="0px"
	 viewBox="0 0 850.4 566.9" style="enable-background:new 0 0 850.4 566.9;" xml:space="preserve">
<style type="text/css">
	.st0{fill:none;stroke:#9101CF;stroke-width:2;stroke-miterlimit:10;}
	.st1{fill:#9101CF;}
	.st2{display:none;}
	.st3{display:inline;}
	.st4{fill:#FFFFFF;}
	.st5{font-family:'MuktaMahee-Light';}
	.st6{font-size:48px;}
</style>
<g id="Laag_6">
</g>
<g id="Laag_8">
</g>
<g id="Laag_7">
	<g>
		<path class="st0" d="M270.8,290.7c36.3-26,140.4-26,140.3,33.6c-0.3,104.1-157.3-0.2-261.3,51.5"/>
	</g>
	<path class="st0" d="M665.8,390.3"/>
	<path class="st0" d="M137.8,390.3"/>
</g>
<g id="line">
	<g>
		<path class="st0" d="M541.7,290.7c-36.3-26-140.4-26-140.3,33.6c0.3,104.1,157.3-0.2,261.3,51.5"/>
	</g>
</g>
<g id="blocks">
	<rect x="146.6" y="298.3" class="st1" width="248.3" height="54.7"/>
	<rect x="417.5" y="298.3" class="st1" width="248.3" height="54.7"/>
</g>
<g id="Laag_3">
</g>
<g id="Laag_2" class="st2">
	<g id="QeOmNY.tif" class="st3">
		
			<image style="overflow:visible;" width="900" height="314" id="Layer_0_1_" xlink:href="C3BBDA2371899575.png"  transform="matrix(0.5 0 0 0.5 312.3403 325.6231)">
		</image>
	</g>
</g>
<g id="text_bg">
	<text transform="matrix(1 0 0 1 153.2908 339.2822)" class="st4 st5 st6">Haaglanden</text>
	<text transform="matrix(1 0 0 1 429.3164 339.2822)" class="st4 st5 st6">Advocatuur</text>
</g>
</svg>
